<svg width="264" height="36" viewBox="0 0 264 36" fill="none" xmlns="http://www.w3.org/2000/svg">
<path d="M260.69 12.6218C262.119 12.3056 261.399 13.6612 260.966 14.7678C260.599 15.7028 260.431 17.0012 259.445 16.2208C259.553 14.9763 260.239 13.7486 260.69 12.6218Z" fill="black"/>
<path d="M255.086 15.6664C257.259 15.912 259.576 15.5319 259.099 18.2261C258.799 19.918 257.989 21.5526 257.229 22.999C255.416 26.4567 252.799 29.5545 248.581 30.9571C247.723 31.2431 246.502 31.7274 245.883 31.5794C244.962 31.3608 244.696 29.3023 244.985 28.2596C251.238 27.2673 255.557 24.3478 257.37 18.919C255.029 18.4447 252.362 18.2967 249.967 17.8796C248.282 20.113 246.26 22.0135 243.741 23.4127C242.873 23.0124 242.405 21.8419 242.564 20.6445C243.337 20.0222 244.208 19.6993 244.985 19.2621C246.526 18.3875 248.11 17.2944 249.207 15.9422C249.762 15.2561 250.145 14.4017 250.73 13.6584C251.833 13.0563 251.85 14.7616 251.285 15.2493C252.651 15.32 253.741 15.5151 255.086 15.6664Z" fill="black"/>
<path d="M258.685 12C259.365 12.1312 259.132 12.9149 258.961 13.3152C258.608 14.1426 258.113 16.2549 257.161 15.7369C256.617 15.4409 257.168 14.5092 257.437 13.8668C257.774 13.0696 258.056 12.2523 258.406 12C258.5 12 258.591 12 258.685 12Z" fill="black"/>
<path d="M239.311 20.4396C239.462 21.035 238.648 22.2526 238.342 22.8614C235.752 28.0144 231.03 31.4889 223.327 31.2333C222.796 30.5707 222.547 28.8553 223.052 27.9807C228.665 27.7587 233.152 26.6925 235.921 23.5509C236.845 22.5015 237.394 21.2469 238.275 20.1605C238.507 19.8779 239.18 19.9418 239.311 20.4396Z" fill="black"/>
<path d="M230.801 18.0882C230.889 19.1073 230.176 20.4729 229.415 20.5099C229.076 20.5267 228.312 19.9886 227.892 19.7498C226.523 18.9627 224.646 18.0175 223.465 17.328C223.408 16.3963 224.128 14.8524 224.78 14.9735C225.695 15.1451 226.873 15.8077 227.962 16.3559C229.076 16.9177 230.155 17.5365 230.801 18.0882Z" fill="black"/>
<path d="M217.236 13.7992C217.35 16.9206 217.562 20.6037 217.374 23.6242C217.011 29.4667 212.231 31.4646 206.234 31.5151C205.722 30.8962 205.517 29.1269 206.025 28.3298C210.684 27.8488 215.615 27.6335 216.059 22.9346C216.19 21.5522 216.059 19.9209 216.059 18.229C216.059 17.0013 215.877 14.1827 216.334 13.7992C216.479 13.5638 217.078 13.6445 217.236 13.7992Z" fill="black"/>
<path d="M205.82 14.4927C206.069 16.8337 205.958 19.9417 205.958 22.7267C205.958 23.5911 206.113 24.8356 205.127 24.6641C204.283 24.5195 204.643 20.8162 204.643 19.6827C204.643 17.752 204.532 15.9088 204.781 14.4221C205.023 14.2001 205.649 14.2472 205.82 14.4927Z" fill="black"/>
<path d="M200.078 20.7893C200.371 21.3679 199.651 22.5821 199.318 23.2111C196.742 28.0681 191.828 31.2668 184.717 31.3072C184.007 30.7253 183.859 28.9191 184.303 27.984C189.954 28.0344 194.408 26.689 197.034 23.6248C197.795 22.7368 198.259 21.6706 199.039 20.6481C199.214 20.4193 199.809 20.2579 200.078 20.7893Z" fill="black"/>
<path d="M191.982 15.8745C192.124 16.9373 191.861 18.2693 191.084 18.4341C190.556 18.5485 188.743 17.9094 188.111 17.7412C186.988 17.4452 185.948 17.2165 185.343 16.8398C185.134 16.0023 185.713 14.1826 186.379 14.3474C187.869 14.7241 190.613 15.3598 191.982 15.8745Z" fill="black"/>
<path d="M190.876 20.9942C190.95 22.2219 190.64 23.0662 189.974 23.5539C187.949 23.1772 186.066 22.6626 184.233 22.1009C183.967 21.1658 184.498 19.2687 185.201 19.4033C186.735 19.6925 189.527 20.4863 190.876 20.9942Z" fill="black"/>
<path d="M178.972 28.3976C179.51 28.9694 179.5 30.4493 178.972 31.0279C174.869 31.0279 170.762 31.0279 166.655 31.0279C166.14 30.446 166.117 28.9694 166.655 28.3976C168.32 28.2395 170.274 28.3707 172.053 28.3269C172.215 26.2516 172.077 23.8769 172.124 21.6839C170.738 21.6839 169.356 21.6839 167.973 21.6839C167.425 21.2702 167.375 19.538 167.903 19.0536C169.151 18.8955 170.691 19.0301 172.053 18.983C172.548 17.7082 171.199 13.0429 173.231 13.9309C173.681 15.2091 173.325 17.2978 173.439 18.9123C174.845 19.0738 176.554 18.9325 178.074 18.9796C178.68 19.5514 178.663 21.0953 178.074 21.6772C176.53 21.6772 174.983 21.6772 173.439 21.6772C173.439 23.8668 173.439 26.0599 173.439 28.2496C175.124 28.4648 177.287 28.1924 178.972 28.3976Z" fill="black"/>
<path d="M168.454 24.1798C168.747 24.8828 168.273 26.1139 167.694 26.1845C167.018 26.272 166.164 25.0745 165.481 25.0106C165.481 26.1307 165.481 27.4324 165.481 28.6769C165.481 29.8979 165.716 31.2467 165.134 31.9967C164.849 32.0035 164.566 32.0102 164.374 31.9261C164.001 30.7959 164.166 29.3395 164.166 27.9134C164.166 26.5074 164.166 25.0174 164.166 23.6921C163.809 23.9511 163.338 24.5296 162.713 25.1452C162.279 25.569 161.566 26.4906 161.054 26.4603C160.348 26.42 159.958 24.8357 160.291 23.9007C162.225 22.5586 164.351 21.4116 165.689 19.4709C164.213 19.4709 162.736 19.4709 161.26 19.4709C160.691 18.7241 160.607 17.1164 161.468 16.8406C162.06 16.6522 163.308 16.8406 164.374 16.8406C166.07 16.8406 167.728 16.6286 167.835 18.0178C167.903 18.8755 167.2 19.6458 166.796 20.231C166.305 20.9508 165.804 21.4318 165.481 22.1684C165.878 22.9017 168.115 23.3558 168.454 24.1798Z" fill="black"/>
<path d="M166.658 14.4919C166.675 15.5077 166.342 16.4294 165.689 16.4966C164.97 16.574 163.163 15.1747 162.508 15.0436C162.252 14.1892 162.716 12.9178 163.338 12.9683C164.317 13.049 166.049 13.9941 166.658 14.4919Z" fill="black"/>
<path d="M157.247 17.8826C157.587 19.0666 157.059 20.4793 156.349 21.0645C153.698 19.857 151.697 18.3367 149.639 16.3589C148.885 15.6358 148.36 14.509 147.701 14.4922C147.096 14.4753 146.167 15.8208 145.696 16.2917C144.287 17.701 143.325 18.5654 141.613 19.6821C141.001 20.079 139.793 21.0141 139.121 20.9266C138.176 20.8022 137.849 18.8581 138.081 17.812C140.591 17.0215 142.982 16.0158 145.071 14.6301C146.066 13.9708 146.941 12.8104 148.529 13.3822C149.191 13.6244 149.783 14.3105 150.466 14.7646C152.41 16.0697 154.728 17.146 157.247 17.8826Z" fill="black"/>
<path d="M156.208 23.2783C156.779 23.7627 156.766 25.4142 156.208 25.9086C154.593 25.9086 152.979 25.9086 151.364 25.9086C151.919 26.9042 155.101 28.8248 153.577 30.7521C152.679 31.889 148.986 31.9798 146.588 31.8588C144.681 31.7646 142.067 31.334 141.882 29.7834C141.674 28.0176 143.544 27.244 144.304 25.9086C142.619 25.9086 140.937 25.9086 139.252 25.9086C138.707 25.4243 138.633 23.6618 139.319 23.2783C144.953 23.2783 150.58 23.2783 156.208 23.2783ZM151.643 28.3304C151.193 27.5568 150.247 26.1205 149.292 25.9086C148.367 25.7034 147.382 26.0566 146.177 25.9086C145.353 26.6049 144.489 27.2608 144.102 28.3977C145.838 29.2453 150.022 29.3764 151.643 28.3304Z" fill="black"/>
<path d="M152.75 19.0571C153.251 19.5011 153.194 20.9508 152.75 21.4116C149.565 21.526 145.902 21.526 142.716 21.4116C142.272 20.8768 142.108 19.2724 142.854 18.9898C143.322 18.8149 144.486 18.9898 145.343 18.9898C147.681 18.9898 150.749 18.936 152.75 19.0571Z" fill="black"/>
<path d="M135.105 28.3297C135.115 29.7693 134.698 30.7851 133.927 31.4443C129.965 29.2277 128.263 24.7441 127.493 19.3355C124.012 19.3355 120.527 19.3355 117.046 19.3355C116.477 18.8814 116.477 17.2299 117.046 16.7759C120.413 16.7759 123.78 16.7759 127.146 16.7759C127.268 15.5044 126.121 12.3528 128.115 13.039C128.371 14.122 128.256 15.5717 128.462 16.7052C130.17 16.8667 132.175 16.7288 133.998 16.7759C134.556 17.2636 134.556 18.8478 133.998 19.3355C132.269 19.3355 130.537 19.3355 128.808 19.3355C129.38 23.8629 132.101 26.2375 135.105 28.3297Z" fill="black"/>
<path d="M133.167 13.8663C133.214 14.4415 131.849 16.4394 131.644 16.4966C131.152 16.6345 130.749 16.3789 130.675 16.0122C130.597 15.6254 131.909 13.4997 132.199 13.3819C132.639 13.207 133.13 13.4156 133.167 13.8663Z" fill="black"/>
<path d="M127.772 26.9443C128.354 27.3748 128.431 28.9423 127.91 29.504C124.563 29.9648 121.153 30.3583 117.671 30.6812C117.126 30.2339 117.026 28.8414 117.463 28.1922C118.835 27.8592 120.45 27.765 121.96 27.5699C121.96 26.3927 121.96 25.2188 121.96 24.0416C120.709 24.0012 119.293 24.1256 118.156 23.9709C117.557 23.4462 117.554 21.6568 118.432 21.5492C120.594 21.2902 125.175 21.6433 127.22 21.6871C127.617 22.2219 127.621 23.5976 127.083 23.9709C125.966 24.1223 124.577 24.0012 123.346 24.0416C123.184 25.0338 123.322 26.3254 123.275 27.432C124.805 27.3042 126.232 27.0688 127.772 26.9443Z" fill="black"/>
<path d="M114.348 27.4289C114.466 28.3875 114.372 29.9516 113.655 30.1299C113.248 30.2308 112.337 29.5715 111.856 29.2284C110.359 28.1588 108.926 26.4434 108.048 25.1451C107.927 27.3078 108.3 29.965 107.84 31.7881C106.397 32.5987 106.733 30.1568 106.733 28.8113C106.733 27.3011 106.733 26.1138 106.733 25.2157C105.828 26.1844 104.342 27.9906 102.858 29.0905C102.461 29.3831 101.509 30.0861 101.197 30.0592C100.416 29.992 100.127 28.2934 100.436 27.291C102.653 26.2584 104.927 25.2762 106.387 23.4868C104.816 23.4431 103.07 23.5777 101.614 23.4162C101.106 22.8848 101.109 21.5999 101.543 20.9944C103.137 20.8364 105.024 20.9709 106.733 20.9272C106.733 20.1199 106.733 19.3127 106.733 18.5054C105.855 18.344 104.681 18.4819 103.689 18.4348C103.131 19.0301 102.969 20.019 102.236 20.4395C101.651 20.2881 101.308 19.8912 101.059 19.4035C100.695 19.8037 99.6662 19.5347 98.9834 19.612C98.3443 21.3241 101.025 21.9934 101.267 23.0025C101.439 23.7156 100.965 24.4858 100.369 24.802C99.7638 24.5329 99.4678 23.951 98.9162 23.6247C98.9162 24.7448 98.9162 26.1104 98.9162 27.846C98.9162 29.3024 99.4308 32.5045 97.8095 31.7208C97.342 29.4201 97.7288 26.2651 97.601 23.6247C96.8677 24.9937 96.0571 26.2786 94.8328 27.1531C94.0592 26.7495 93.9852 25.6496 94.002 24.4522C95.3642 23.0025 97.6515 22.4744 97.601 19.6087C96.6794 19.6087 95.7544 19.6087 94.8328 19.6087C94.3753 19.1613 94.3518 17.7082 94.7622 17.1869C95.5795 17.0322 96.6693 17.1566 97.601 17.1163C97.8465 15.68 96.8408 12.3266 98.7782 13.0329C99.0843 14.1092 98.8354 15.7406 98.9162 17.0456C99.7032 17.2979 101.338 16.6992 101.2 17.8764C101.809 17.5233 102.233 16.9212 102.791 16.0063C103.262 15.236 103.716 13.4433 104.799 14.2068C105.031 14.9703 104.624 15.6296 104.453 16.2115C105.189 16.2115 105.929 16.2115 106.666 16.2115C106.895 15.31 106.538 13.8233 106.874 13.0295C108.536 12.2862 107.957 14.866 108.052 16.1408C109.252 16.3023 110.749 16.1644 112.064 16.2115C112.589 16.6353 112.451 17.8932 112.064 18.3574C110.884 18.5155 109.414 18.3843 108.119 18.4247C107.957 19.1176 108.095 20.1098 108.048 20.9171C109.777 20.9171 111.509 20.9171 113.238 20.9171C113.807 21.3443 113.78 22.8881 113.309 23.4061C111.805 23.5642 110.013 23.433 108.395 23.4767C109.636 25.2695 112.091 26.4333 114.348 27.4289Z" fill="black"/>
<path d="M20.5604 18.2453C20.5604 16.8187 20.2037 15.7825 19.4905 15.1432C18.7032 14.4299 17.6333 14.0733 16.2807 14.0733C14.8542 14.0733 13.7473 14.3256 12.9634 14.8236C12.2501 15.2542 11.8935 15.9305 11.8935 16.8557C11.8228 17.643 12.2131 18.3193 13.071 18.8879C13.7136 19.3152 15.0695 19.7425 17.1387 20.1731C21.9163 21.1017 24.4161 22.9926 24.628 25.8456C24.8434 28.1974 24.2007 30.0176 22.7002 31.3028C21.203 32.5881 19.0262 33.2307 16.1731 33.2307C13.3906 33.2307 11.2508 32.5511 9.75364 31.1985C8.25644 29.846 7.46915 27.8812 7.3985 25.314H11.1432C11.0725 28.5238 12.6404 30.095 15.8501 30.021C18.9185 29.9503 20.594 28.9511 20.88 27.0232C21.0953 25.2434 19.1675 23.9582 15.1032 23.1709C10.1809 22.175 7.82579 20.0318 8.04112 16.7514C8.11177 15.0389 8.9327 13.6494 10.5039 12.5795C12.0718 11.5096 14.0703 10.9746 16.4961 10.9746C18.8512 10.9746 20.7757 11.6542 22.2729 13.0101C23.4841 14.1507 24.1604 15.8969 24.305 18.252H20.5604V18.2453Z" fill="#8EB928"/>
<path d="M31.1249 18.801H28.0497V15.5576H31.1249V18.801ZM30.9566 32.9823H28.2247V20.3386H30.9566V32.9823Z" fill="#070001"/>
<path d="M43.1495 22.9016H41.5278C39.5933 22.9016 38.6243 23.7562 38.6243 25.462V32.9783H35.8923V20.3379H38.6243V22.047C38.9675 21.4785 39.3376 21.0512 39.7346 20.7652C40.1316 20.4826 40.6733 20.3379 41.3563 20.3379H43.1495V22.9016Z" fill="#070001"/>
<path d="M61.0116 32.9818H58.2796V24.9507C58.2796 24.2105 58.0508 23.6117 57.5966 23.1575C57.0819 22.7033 56.4864 22.5047 55.8034 22.5586C54.0942 22.673 53.0983 23.753 52.8157 25.8053V32.9784H50.0837V20.338H52.8157V21.9631C54.0101 20.8259 55.265 20.2539 56.5738 20.2539C57.886 20.2539 58.966 20.6812 59.8206 21.5358C60.6179 22.3332 61.015 23.3862 61.015 24.695V32.9818H61.0116Z" fill="#070001"/>
<path d="M76.0374 22.387V20.8595H74.197C73.2852 20.8595 72.5181 20.9268 71.8923 21.667C71.0378 20.9268 69.9578 20.4053 68.6456 20.4053C67.1652 20.4053 65.9978 20.7013 65.1432 21.4415C64.3458 22.1245 63.9488 22.9724 63.9488 24.0524C63.9488 25.2468 64.3189 26.0845 65.0591 26.5959C63.9791 26.9963 63.4374 27.6692 63.4374 28.6348C63.4374 29.0924 63.5518 29.4288 63.7806 29.6542C64.0665 29.9402 64.3222 30.1656 64.5477 30.3372C64.3761 30.4516 64.0665 30.7342 63.609 31.1884C63.2658 31.5316 63.0976 31.9858 63.0976 32.5544C63.0976 33.1802 63.3533 33.7488 63.868 34.2636C64.7798 35.1754 66.4856 35.6296 68.9921 35.6296C71.6097 35.6296 73.3492 35.2023 74.2037 34.3477C74.7723 33.7791 75.0583 33.0356 75.0583 32.1271C75.0583 31.5013 74.7723 30.9025 74.2037 30.3339C73.4635 29.5937 72.2692 29.2236 70.6172 29.2236C69.6482 29.2236 68.6826 29.1967 67.7136 29.1395C66.7447 29.0823 66.092 28.8838 65.7488 28.5406C65.4628 28.258 65.4359 27.9989 65.6647 27.7701C65.8901 27.5447 66.1761 27.4572 66.5193 27.5144C67.145 27.8004 67.855 27.9417 68.6523 27.9417C70.3615 27.9417 71.5559 27.6019 72.2389 26.9156C72.9791 26.1754 73.3492 25.267 73.3492 24.1836C73.3492 23.7294 73.4568 23.218 73.117 22.646C73.6789 22.3028 74.6916 22.2187 76.0374 22.387ZM65.7421 31.4442C65.9708 31.2187 66.1963 31.101 66.425 31.101C67.5084 31.3298 68.5918 31.4442 69.6718 31.4442C71.4953 31.4442 72.4071 31.6999 72.4071 32.2113C72.4071 32.5544 72.2086 32.837 71.8082 33.0658C71.4112 33.2913 70.4692 33.4056 68.9888 33.4056C67.8482 33.4056 66.9667 33.3215 66.3409 33.1499C65.7151 32.9817 65.4022 32.6957 65.4022 32.2954C65.3989 31.9556 65.5133 31.6696 65.7421 31.4442ZM70.0957 25.6337C69.7559 25.9735 69.2714 26.1485 68.6456 26.1485C68.0198 26.1485 67.5084 25.9499 67.108 25.5496C66.7649 25.2064 66.5933 24.7253 66.5933 24.0961C66.5933 23.4703 66.7918 22.9589 67.1921 22.5585C67.532 22.2154 68.0164 22.0471 68.6422 22.0471C69.268 22.0471 69.7828 22.249 70.1798 22.646C70.523 22.9858 70.6912 23.4737 70.6912 24.0995C70.6946 24.7253 70.4961 25.2367 70.0957 25.6337Z" fill="#070001"/>
<path d="M53.3776 4.12173C49.606 6.14042 47.8565 9.53855 47.1196 13.3741C52.126 13.6331 61.2236 13.3875 63.2692 9.46453C66.4385 3.13257 57.1391 2.34192 53.3776 4.12173Z" fill="#8EB928"/>
<path d="M38.0422 3.47566C35.2161 3.87939 34.4086 6.90743 35.8217 9.32986C37.2348 11.7523 42.083 13.1654 44.9091 13.5691C45.4273 13.6229 46.0834 13.6734 46.8303 13.7138C45.4576 11.8869 44.2093 10.1542 43.0923 7.91678C41.8777 5.69622 41.0703 3.06855 38.0422 3.47566Z" fill="#8EB928"/>
<path d="M42.9779 34.1096C47.9607 32.3668 46.8807 23.9893 46.8101 19.9216C46.689 12.9571 48.7177 3.05206 57.4015 2.79636C59.7028 2.72907 63.323 3.23037 64.0262 5.90178C64.9043 9.22589 61.6677 11.3724 58.966 12.1362C55.7697 13.0412 52.3413 13.1623 49.0407 13.1085C45.9353 13.0614 42.9611 12.7451 40.0306 11.6315C38.0792 10.8913 35.9024 9.81804 35.105 7.74551C34.1091 5.15822 36.1447 1.02664 39.2972 3.40196C40.9693 4.66028 41.7163 7.23075 42.7323 8.98365C43.9906 11.1537 45.5316 13.1354 47.0355 15.1339C47.2576 15.43 48.5091 15.0027 48.2501 14.6562C46.3592 12.1429 44.5189 9.64981 43.0688 6.8472C42.2647 5.29617 41.5043 3.26402 39.7985 2.49019C36.5652 1.02327 32.8407 3.8057 33.5675 7.29131C34.4019 11.3018 39.6706 12.6947 43.1159 13.344C46.3895 13.9597 49.9592 13.8588 53.2598 13.6064C56.483 13.3608 60.1604 12.8999 62.8923 11.0124C65.0321 9.53542 66.5361 6.12047 64.4097 3.99411C62.4213 2.0057 58.7944 1.93505 56.2071 2.31187C52.6912 2.82327 49.7506 5.00346 47.9574 8.05841C45.5383 12.1765 45.4441 17.0887 45.5484 21.7283C45.5955 23.9152 45.6157 26.1223 45.3095 28.2924C45.0471 30.1597 44.5391 32.9758 42.4968 33.6924C41.6321 33.9952 42.4329 34.298 42.9779 34.1096Z" fill="#89892A"/>
</svg>
